{
  "accessors": [
    {
      "bufferView": 2,
      "componentType": 5126,
      "count": 1181,
      "max": [
        0.05000000074505806,
        0.03492499887943268,
        0.006800000090152025
      ],
      "min": [
        -0.05016043037176132,
        -0.03492499887943268,
        0.0
      ],
      "type": "VEC3"
    },
    {
      "bufferView": 2,
      "byteOffset": 14172,
      "componentType": 5126,
      "count": 1181,
      "max": [
        0.995184600353241,
        1.0,
        1.0
      ],
      "min": [
        -1.0,
        -1.0,
        -1.0
      ],
      "type": "VEC3"
    },
    {
      "bufferView": 3,
      "componentType": 5126,
      "count": 1181,
      "max": [
        1.0,
        1.0,
        1.0,
        1.0
      ],
      "min": [
        -1.0,
        -1.0,
        -1.0,
        -1.0
      ],
      "type": "VEC4"
    },
    {
      "bufferView": 1,
      "componentType": 5126,
      "count": 1181,
      "max": [
        0.9939167499542236,
        0.8765954971313477
      ],
      "min": [
        0.006083261221647263,
        0.006083261221647263
      ],
      "type": "VEC2"
    },
    {
      "bufferView": 1,
      "byteOffset": 9448,
      "componentType": 5126,
      "count": 1181,
      "max": [
        0.9939167499542236,
        0.8765954971313477
      ],
      "min": [
        0.006083261221647263,
        0.006083261221647263
      ],
      "type": "VEC2"
    },
    {
      "bufferView": 1,
      "byteOffset": 18896,
      "componentType": 5126,
      "count": 1181,
      "max": [
        0.9939167499542236,
        0.8765954971313477
      ],
      "min": [
        0.006083261221647263,
        0.006083261221647263
      ],
      "type": "VEC2"
    },
    {
      "bufferView": 0,
      "componentType": 5125,
      "count": 2754,
      "type": "SCALAR"
    }
  ],
  "asset": {
    "extras": {
      "author": "jcbinet (https://sketchfab.com/jcbinet)",
      "license": "CC-BY-4.0 (http://creativecommons.org/licenses/by/4.0/)",
      "source": "https://sketchfab.com/3d-models/samsung-ssd-25in-dirty-dcc1150ede274cccb7f2ddc0f2345dcb",
      "title": "Samsung SSD 2.5in - Dirty"
    },
    "generator": "Sketchfab-14.81.0",
    "version": "2.0"
  },
  "bufferViews": [
    {
      "buffer": 0,
      "byteLength": 11016,
      "name": "floatBufferViews",
      "target": 34963
    },
    {
      "buffer": 0,
      "byteLength": 28344,
      "byteOffset": 11016,
      "byteStride": 8,
      "name": "floatBufferViews",
      "target": 34962
    },
    {
      "buffer": 0,
      "byteLength": 28344,
      "byteOffset": 39360,
      "byteStride": 12,
      "name": "floatBufferViews",
      "target": 34962
    },
    {
      "buffer": 0,
      "byteLength": 18896,
      "byteOffset": 67704,
      "byteStride": 16,
      "name": "floatBufferViews",
      "target": 34962
    }
  ],
  "buffers": [
    {
      "byteLength": 86600,
      "uri": "scene.bin"
    }
  ],
  "images": [
    {
      "uri": "textures/SSD_2.5in_baseColor.png"
    },
    {
      "uri": "textures/SSD_2.5in_metallicRoughness.png"
    },
    {
      "uri": "textures/SSD_2.5in_normal.png"
    }
  ],
  "materials": [
    {
      "doubleSided": true,
      "name": "SSD_2.5in",
      "normalTexture": {
        "index": 2
      },
      "occlusionTexture": {
        "index": 1
      },
      "pbrMetallicRoughness": {
        "baseColorTexture": {
          "index": 0
        },
        "metallicRoughnessTexture": {
          "index": 1
        }
      }
    }
  ],
  "meshes": [
    {
      "name": "SSD 2.5in - TT_SSD 2.5in_0",
      "primitives": [
        {
          "attributes": {
            "NORMAL": 1,
            "POSITION": 0,
            "TANGENT": 2,
            "TEXCOORD_0": 3,
            "TEXCOORD_1": 4,
            "TEXCOORD_2": 5
          },
          "indices": 6,
          "material": 0,
          "mode": 4
        }
      ]
    }
  ],
  "nodes": [
    {
      "children": [
        1
      ],
      "matrix": [
        1.0,
        0.0,
        0.0,
        0.0,
        0.0,
        2.220446049250313e-16,
        -1.0,
        0.0,
        0.0,
        1.0,
        2.220446049250313e-16,
        0.0,
        0.0,
        0.0,
        0.0,
        1.0
      ],
      "name": "Sketchfab_model"
    },
    {
      "children": [
        2
      ],
      "matrix": [
        0.009999999776482582,
        0.0,
        0.0,
        0.0,
        0.0,
        0.0,
        0.009999999776482582,
        0.0,
        0.0,
        -0.009999999776482582,
        0.0,
        0.0,
        0.0,
        0.0,
        0.0,
        1.0
      ],
      "name": "17fdab986f1041c49a3aa46edcb19250.fbx"
    },
    {
      "children": [
        3
      ],
      "name": "RootNode"
    },
    {
      "children": [
        4
      ],
      "matrix": [
        100.0,
        0.0,
        0.0,
        0.0,
        0.0,
        -1.629206793918314e-05,
        -99.99999999999868,
        0.0,
        0.0,
        99.99999999999868,
        -1.629206793918314e-05,
        0.0,
        0.0,
        0.0,
        0.0,
        1.0
      ],
      "name": "SSD 2.5in - TT"
    },
    {
      "mesh": 0,
      "name": "SSD 2.5in - TT_SSD 2.5in_0"
    }
  ],
  "samplers": [
    {
      "magFilter": 9729,
      "minFilter": 9987,
      "wrapS": 10497,
      "wrapT": 10497
    }
  ],
  "scene": 0,
  "scenes": [
    {
      "name": "Sketchfab_Scene",
      "nodes": [
        0
      ]
    }
  ],
  "textures": [
    {
      "sampler": 0,
      "source": 0
    },
    {
      "sampler": 0,
      "source": 1
    },
    {
      "sampler": 0,
      "source": 2
    }
  ]
}
