{
	"asset":{
		"generator":"Khronos glTF Blender I/O v3.6.27",
		"version":"2.0"
	},
	"scene":0,
	"scenes":[
		{
			"name":"Scene",
			"nodes":[
				0,
				1,
				2,
				3
			]
		}
	],
	"nodes":[
		{
			"mesh":0,
			"name":"Sphere.001",
			"rotation":[
				-0.70899897813797,
				0,
				0,
				0.705209493637085
			],
			"scale":[
				0.09196706116199493,
				0.09196706116199493,
				0.09196706116199493
			],
			"translation":[
				-0.03068774938583374,
				0.8097609281539917,
				0.27528098225593567
			]
		},
		{
			"mesh":1,
			"name":"Sphere.002",
			"rotation":[
				-0.70899897813797,
				0,
				0,
				0.705209493637085
			],
			"scale":[
				0.09196706116199493,
				0.09196706116199493,
				0.09196706116199493
			],
			"translation":[
				0.1957334578037262,
				0.9580852389335632,
				0.5254989862442017
			]
		},
		{
			"mesh":2,
			"name":"Sphere.003",
			"rotation":[
				-0.70899897813797,
				0,
				0,
				0.705209493637085
			],
			"scale":[
				0.09196706116199493,
				0.09196706116199493,
				0.09196706116199493
			],
			"translation":[
				-0.03068774938583374,
				0.8097609281539917,
				0.27528098225593567
			]
		},
		{
			"mesh":3,
			"name":"Sphere.004",
			"rotation":[
				-0.70899897813797,
				0,
				0,
				0.705209493637085
			],
			"scale":[
				0.09196706116199493,
				0.09196706116199493,
				0.09196706116199493
			],
			"translation":[
				0.1957334578037262,
				0.9580852389335632,
				0.5254989862442017
			]
		}
	],
	"animations":[
		{
			"channels":[
				{
					"sampler":0,
					"target":{
						"node":0,
						"path":"weights"
					}
				}
			],
			"name":"KeyAction",
			"samplers":[
				{
					"input":61,
					"interpolation":"LINEAR",
					"output":62
				}
			]
		},
		{
			"channels":[
				{
					"sampler":0,
					"target":{
						"node":2,
						"path":"weights"
					}
				}
			],
			"name":"Key.001Action",
			"samplers":[
				{
					"input":63,
					"interpolation":"LINEAR",
					"output":64
				}
			]
		}
	],
	"materials":[
		{
			"doubleSided":true,
			"name":"Material.001",
			"pbrMetallicRoughness":{
				"baseColorFactor":[
					0.8000000715255737,
					0.5036530494689941,
					0.4027143120765686,
					1
				],
				"metallicFactor":0,
				"roughnessFactor":0.5
			}
		},
		{
			"doubleSided":true,
			"name":"Material",
			"pbrMetallicRoughness":{
				"baseColorFactor":[
					0.800000011920929,
					0.800000011920929,
					0.800000011920929,
					1
				],
				"metallicFactor":0,
				"roughnessFactor":0.5
			}
		},
		{
			"doubleSided":true,
			"name":"Hitam",
			"pbrMetallicRoughness":{
				"baseColorFactor":[
					0,
					0,
					0,
					1
				],
				"metallicFactor":0,
				"roughnessFactor":0.5
			}
		}
	],
	"meshes":[
		{
			"extras":{
				"targetNames":[
					"AngryL",
					"AngryR",
					"SmileL",
					"SmileR",
					"RaisedL",
					"RaisedR",
					"EyeCloseL",
					"EyeCloseR",
					"SadL",
					"SadR",
					"MulutO",
					"MulutA"
				]
			},
			"name":"Sphere.001",
			"primitives":[
				{
					"attributes":{
						"POSITION":0,
						"NORMAL":1,
						"TEXCOORD_0":2
					},
					"indices":3,
					"material":0,
					"targets":[
						{
							"POSITION":4,
							"NORMAL":5
						},
						{
							"POSITION":6,
							"NORMAL":7
						},
						{
							"POSITION":8,
							"NORMAL":9
						},
						{
							"POSITION":10,
							"NORMAL":11
						},
						{
							"POSITION":12,
							"NORMAL":13
						},
						{
							"POSITION":14,
							"NORMAL":15
						},
						{
							"POSITION":16,
							"NORMAL":17
						},
						{
							"POSITION":18,
							"NORMAL":19
						},
						{
							"POSITION":20,
							"NORMAL":21
						},
						{
							"POSITION":22,
							"NORMAL":23
						},
						{
							"POSITION":24,
							"NORMAL":25
						},
						{
							"POSITION":26,
							"NORMAL":27
						}
					]
				}
			],
			"weights":[
				0,
				0,
				0,
				0,
				0,
				0.6438632011413574,
				0,
				1,
				0.6740442514419556,
				0,
				0,
				0
			]
		},
		{
			"name":"Sphere.002",
			"primitives":[
				{
					"attributes":{
						"POSITION":28,
						"NORMAL":29,
						"TEXCOORD_0":30
					},
					"indices":31,
					"material":0
				}
			]
		},
		{
			"extras":{
				"targetNames":[
					"MulutO",
					"MulutA",
					"MulutU",
					"MulutE",
					"MulutI",
					"AngryL",
					"AngryR",
					"SmileL",
					"SmileR"
				]
			},
			"name":"Sphere.003",
			"primitives":[
				{
					"attributes":{
						"POSITION":32,
						"NORMAL":33,
						"TEXCOORD_0":34
					},
					"indices":3,
					"material":0,
					"targets":[
						{
							"POSITION":35,
							"NORMAL":36
						},
						{
							"POSITION":37,
							"NORMAL":38
						},
						{
							"POSITION":39,
							"NORMAL":40
						},
						{
							"POSITION":41,
							"NORMAL":42
						},
						{
							"POSITION":43,
							"NORMAL":44
						},
						{
							"POSITION":45,
							"NORMAL":46
						},
						{
							"POSITION":47,
							"NORMAL":48
						},
						{
							"POSITION":49,
							"NORMAL":50
						},
						{
							"POSITION":51,
							"NORMAL":52
						}
					]
				}
			],
			"weights":[
				0,
				0,
				0,
				0,
				0,
				0,
				0,
				0,
				0
			]
		},
		{
			"name":"Sphere.004",
			"primitives":[
				{
					"attributes":{
						"POSITION":53,
						"NORMAL":54,
						"TEXCOORD_0":55
					},
					"indices":56,
					"material":1
				},
				{
					"attributes":{
						"POSITION":57,
						"NORMAL":58,
						"TEXCOORD_0":59
					},
					"indices":60,
					"material":2
				}
			]
		}
	],
	"accessors":[
		{
			"bufferView":0,
			"componentType":5126,
			"count":535,
			"max":[
				6.801229476928711,
				11.719526290893555,
				10.589784622192383
			],
			"min":[
				-6.799931526184082,
				-6.426037311553955,
				-8.668924331665039
			],
			"type":"VEC3"
		},
		{
			"bufferView":1,
			"componentType":5126,
			"count":535,
			"type":"VEC3"
		},
		{
			"bufferView":2,
			"componentType":5126,
			"count":535,
			"type":"VEC2"
		},
		{
			"bufferView":3,
			"componentType":5123,
			"count":3054,
			"type":"SCALAR"
		},
		{
			"bufferView":4,
			"componentType":5126,
			"count":535,
			"max":[
				0.01537013053894043,
				0.0029692649841308594,
				0.0865485668182373
			],
			"min":[
				-0.008342266082763672,
				-0.00046372413635253906,
				-0.5540993213653564
			],
			"type":"VEC3"
		},
		{
			"bufferView":5,
			"componentType":5126,
			"count":535,
			"type":"VEC3"
		},
		{
			"bufferView":6,
			"componentType":5126,
			"count":535,
			"max":[
				0.01537013053894043,
				0.0029692649841308594,
				0.0865485668182373
			],
			"min":[
				-0.008342266082763672,
				-0.00046372413635253906,
				-0.5540993213653564
			],
			"type":"VEC3"
		},
		{
			"bufferView":7,
			"componentType":5126,
			"count":535,
			"type":"VEC3"
		},
		{
			"bufferView":8,
			"componentType":5126,
			"count":535,
			"max":[
				0.8875551223754883,
				6.723403930664062e-05,
				0.594353199005127
			],
			"min":[
				-0.8888523578643799,
				-0.0031855106353759766,
				-0.012540340423583984
			],
			"type":"VEC3"
		},
		{
			"bufferView":9,
			"componentType":5126,
			"count":535,
			"type":"VEC3"
		},
		{
			"bufferView":10,
			"componentType":5126,
			"count":535,
			"max":[
				0.8875551223754883,
				6.723403930664062e-05,
				0.594353199005127
			],
			"min":[
				-0.8888523578643799,
				-0.0031855106353759766,
				-0.012540340423583984
			],
			"type":"VEC3"
		},
		{
			"bufferView":11,
			"componentType":5126,
			"count":535,
			"type":"VEC3"
		},
		{
			"bufferView":12,
			"componentType":5126,
			"count":535,
			"max":[
				0.01537013053894043,
				6.723403930664062e-05,
				0.839341402053833
			],
			"min":[
				-0.008342266082763672,
				-0.004498004913330078,
				-0.012540340423583984
			],
			"type":"VEC3"
		},
		{
			"bufferView":13,
			"componentType":5126,
			"count":535,
			"type":"VEC3"
		},
		{
			"bufferView":14,
			"componentType":5126,
			"count":535,
			"max":[
				0.01537013053894043,
				6.723403930664062e-05,
				0.839341402053833
			],
			"min":[
				-0.008342266082763672,
				-0.004498004913330078,
				-0.012540340423583984
			],
			"type":"VEC3"
		},
		{
			"bufferView":15,
			"componentType":5126,
			"count":535,
			"type":"VEC3"
		},
		{
			"bufferView":16,
			"componentType":5126,
			"count":535,
			"max":[
				0.18400073051452637,
				0.1133875846862793,
				0.3485172986984253
			],
			"min":[
				-0.18529820442199707,
				-0.08858108520507812,
				-0.42521631717681885
			],
			"type":"VEC3"
		},
		{
			"bufferView":17,
			"componentType":5126,
			"count":535,
			"type":"VEC3"
		},
		{
			"bufferView":18,
			"componentType":5126,
			"count":535,
			"max":[
				0.18400073051452637,
				0.1133875846862793,
				0.3485172986984253
			],
			"min":[
				-0.18529820442199707,
				-0.08858108520507812,
				-0.42521631717681885
			],
			"type":"VEC3"
		},
		{
			"bufferView":19,
			"componentType":5126,
			"count":535,
			"type":"VEC3"
		},
		{
			"bufferView":20,
			"componentType":5126,
			"count":535,
			"max":[
				0.5558614730834961,
				0.03103470802307129,
				0.46698474884033203
			],
			"min":[
				-0.5571584701538086,
				-0.2680850028991699,
				-0.7399181127548218
			],
			"type":"VEC3"
		},
		{
			"bufferView":21,
			"componentType":5126,
			"count":535,
			"type":"VEC3"
		},
		{
			"bufferView":22,
			"componentType":5126,
			"count":535,
			"max":[
				0.5558614730834961,
				0.03103470802307129,
				0.46698474884033203
			],
			"min":[
				-0.5571584701538086,
				-0.2680850028991699,
				-0.7399181127548218
			],
			"type":"VEC3"
		},
		{
			"bufferView":23,
			"componentType":5126,
			"count":535,
			"type":"VEC3"
		},
		{
			"bufferView":24,
			"componentType":5126,
			"count":535,
			"max":[
				0.8899837136268616,
				0.6110877990722656,
				0.4556868076324463
			],
			"min":[
				-0.8912811875343323,
				-0.3259434700012207,
				-1.1589012145996094
			],
			"type":"VEC3"
		},
		{
			"bufferView":25,
			"componentType":5126,
			"count":535,
			"type":"VEC3"
		},
		{
			"bufferView":26,
			"componentType":5126,
			"count":535,
			"max":[
				0.15184998512268066,
				0.6110877990722656,
				0.014737129211425781
			],
			"min":[
				-0.15314722061157227,
				-0.3259434700012207,
				-1.1362476348876953
			],
			"type":"VEC3"
		},
		{
			"bufferView":27,
			"componentType":5126,
			"count":535,
			"type":"VEC3"
		},
		{
			"bufferView":28,
			"componentType":5126,
			"count":3968,
			"max":[
				1.000000238418579,
				1,
				1.000001311302185
			],
			"min":[
				-5.799598693847656,
				-1.0000009536743164,
				-0.9999991655349731
			],
			"type":"VEC3"
		},
		{
			"bufferView":29,
			"componentType":5126,
			"count":3968,
			"type":"VEC3"
		},
		{
			"bufferView":30,
			"componentType":5126,
			"count":3968,
			"type":"VEC2"
		},
		{
			"bufferView":31,
			"componentType":5123,
			"count":5760,
			"type":"SCALAR"
		},
		{
			"bufferView":32,
			"componentType":5126,
			"count":535,
			"max":[
				6.801229476928711,
				11.719526290893555,
				10.589784622192383
			],
			"min":[
				-6.799931526184082,
				-6.426037311553955,
				-8.668924331665039
			],
			"type":"VEC3"
		},
		{
			"bufferView":33,
			"componentType":5126,
			"count":535,
			"type":"VEC3"
		},
		{
			"bufferView":34,
			"componentType":5126,
			"count":535,
			"type":"VEC2"
		},
		{
			"bufferView":35,
			"componentType":5126,
			"count":535,
			"max":[
				0.8899837136268616,
				0.6110877990722656,
				0.4556868076324463
			],
			"min":[
				-0.8912811875343323,
				-0.3259434700012207,
				-1.1589012145996094
			],
			"type":"VEC3"
		},
		{
			"bufferView":36,
			"componentType":5126,
			"count":535,
			"type":"VEC3"
		},
		{
			"bufferView":37,
			"componentType":5126,
			"count":535,
			"max":[
				0.15184998512268066,
				0.6110877990722656,
				0.014737129211425781
			],
			"min":[
				-0.15314722061157227,
				-0.3259434700012207,
				-1.1362476348876953
			],
			"type":"VEC3"
		},
		{
			"bufferView":38,
			"componentType":5126,
			"count":535,
			"type":"VEC3"
		},
		{
			"bufferView":39,
			"componentType":5126,
			"count":535,
			"max":[
				1.2428596019744873,
				0.694749116897583,
				0.4556868076324463
			],
			"min":[
				-1.244157314300537,
				-0.5839266777038574,
				-1.1430764198303223
			],
			"type":"VEC3"
		},
		{
			"bufferView":40,
			"componentType":5126,
			"count":535,
			"type":"VEC3"
		},
		{
			"bufferView":41,
			"componentType":5126,
			"count":535,
			"max":[
				0.3358321189880371,
				0.22197556495666504,
				0.8143386840820312
			],
			"min":[
				-0.3371295928955078,
				-0.04563209414482117,
				-0.8864603042602539
			],
			"type":"VEC3"
		},
		{
			"bufferView":42,
			"componentType":5126,
			"count":535,
			"type":"VEC3"
		},
		{
			"bufferView":43,
			"componentType":5126,
			"count":535,
			"max":[
				0.4060492515563965,
				0.312375545501709,
				0.0702974796295166
			],
			"min":[
				-0.4073467254638672,
				-0.0651887059211731,
				-0.6208057403564453
			],
			"type":"VEC3"
		},
		{
			"bufferView":44,
			"componentType":5126,
			"count":535,
			"type":"VEC3"
		},
		{
			"bufferView":45,
			"componentType":5126,
			"count":535,
			"max":[
				0.01537013053894043,
				0.0029692649841308594,
				0.0865485668182373
			],
			"min":[
				-0.008342266082763672,
				-0.00046372413635253906,
				-0.5540993213653564
			],
			"type":"VEC3"
		},
		{
			"bufferView":46,
			"componentType":5126,
			"count":535,
			"type":"VEC3"
		},
		{
			"bufferView":47,
			"componentType":5126,
			"count":535,
			"max":[
				0.01537013053894043,
				0.0029692649841308594,
				0.0865485668182373
			],
			"min":[
				-0.008342266082763672,
				-0.00046372413635253906,
				-0.5540993213653564
			],
			"type":"VEC3"
		},
		{
			"bufferView":48,
			"componentType":5126,
			"count":535,
			"type":"VEC3"
		},
		{
			"bufferView":49,
			"componentType":5126,
			"count":535,
			"max":[
				0.8875551223754883,
				6.723403930664062e-05,
				0.594353199005127
			],
			"min":[
				-0.8888523578643799,
				-0.0031855106353759766,
				-0.012540340423583984
			],
			"type":"VEC3"
		},
		{
			"bufferView":50,
			"componentType":5126,
			"count":535,
			"type":"VEC3"
		},
		{
			"bufferView":51,
			"componentType":5126,
			"count":535,
			"max":[
				0.8875551223754883,
				6.723403930664062e-05,
				0.594353199005127
			],
			"min":[
				-0.8888523578643799,
				-0.0031855106353759766,
				-0.012540340423583984
			],
			"type":"VEC3"
		},
		{
			"bufferView":52,
			"componentType":5126,
			"count":535,
			"type":"VEC3"
		},
		{
			"bufferView":53,
			"componentType":5126,
			"count":3520,
			"max":[
				1.000000238418579,
				1,
				1.000001311302185
			],
			"min":[
				-5.799598693847656,
				-0.9238806366920471,
				-0.9999991655349731
			],
			"type":"VEC3"
		},
		{
			"bufferView":54,
			"componentType":5126,
			"count":3520,
			"type":"VEC3"
		},
		{
			"bufferView":55,
			"componentType":5126,
			"count":3520,
			"type":"VEC2"
		},
		{
			"bufferView":56,
			"componentType":5123,
			"count":5184,
			"type":"SCALAR"
		},
		{
			"bufferView":57,
			"componentType":5126,
			"count":448,
			"max":[
				0.38268354535102844,
				-0.9238796234130859,
				0.3826845586299896
			],
			"min":[
				-5.182282447814941,
				-1.0000009536743164,
				-0.3826829195022583
			],
			"type":"VEC3"
		},
		{
			"bufferView":58,
			"componentType":5126,
			"count":448,
			"type":"VEC3"
		},
		{
			"bufferView":59,
			"componentType":5126,
			"count":448,
			"type":"VEC2"
		},
		{
			"bufferView":60,
			"componentType":5123,
			"count":576,
			"type":"SCALAR"
		},
		{
			"bufferView":61,
			"componentType":5126,
			"count":2,
			"max":[
				6.875
			],
			"min":[
				0
			],
			"type":"SCALAR"
		},
		{
			"bufferView":62,
			"componentType":5126,
			"count":24,
			"type":"SCALAR"
		},
		{
			"bufferView":63,
			"componentType":5126,
			"count":96,
			"max":[
				3.9583333333333335
			],
			"min":[
				0
			],
			"type":"SCALAR"
		},
		{
			"bufferView":64,
			"componentType":5126,
			"count":864,
			"type":"SCALAR"
		}
	],
	"bufferViews":[
		{
			"buffer":0,
			"byteLength":6420,
			"byteOffset":0,
			"target":34962
		},
		{
			"buffer":0,
			"byteLength":6420,
			"byteOffset":6420,
			"target":34962
		},
		{
			"buffer":0,
			"byteLength":4280,
			"byteOffset":12840,
			"target":34962
		},
		{
			"buffer":0,
			"byteLength":6108,
			"byteOffset":17120,
			"target":34963
		},
		{
			"buffer":0,
			"byteLength":6420,
			"byteOffset":23228,
			"target":34962
		},
		{
			"buffer":0,
			"byteLength":6420,
			"byteOffset":29648,
			"target":34962
		},
		{
			"buffer":0,
			"byteLength":6420,
			"byteOffset":36068,
			"target":34962
		},
		{
			"buffer":0,
			"byteLength":6420,
			"byteOffset":42488,
			"target":34962
		},
		{
			"buffer":0,
			"byteLength":6420,
			"byteOffset":48908,
			"target":34962
		},
		{
			"buffer":0,
			"byteLength":6420,
			"byteOffset":55328,
			"target":34962
		},
		{
			"buffer":0,
			"byteLength":6420,
			"byteOffset":61748,
			"target":34962
		},
		{
			"buffer":0,
			"byteLength":6420,
			"byteOffset":68168,
			"target":34962
		},
		{
			"buffer":0,
			"byteLength":6420,
			"byteOffset":74588,
			"target":34962
		},
		{
			"buffer":0,
			"byteLength":6420,
			"byteOffset":81008,
			"target":34962
		},
		{
			"buffer":0,
			"byteLength":6420,
			"byteOffset":87428,
			"target":34962
		},
		{
			"buffer":0,
			"byteLength":6420,
			"byteOffset":93848,
			"target":34962
		},
		{
			"buffer":0,
			"byteLength":6420,
			"byteOffset":100268,
			"target":34962
		},
		{
			"buffer":0,
			"byteLength":6420,
			"byteOffset":106688,
			"target":34962
		},
		{
			"buffer":0,
			"byteLength":6420,
			"byteOffset":113108,
			"target":34962
		},
		{
			"buffer":0,
			"byteLength":6420,
			"byteOffset":119528,
			"target":34962
		},
		{
			"buffer":0,
			"byteLength":6420,
			"byteOffset":125948,
			"target":34962
		},
		{
			"buffer":0,
			"byteLength":6420,
			"byteOffset":132368,
			"target":34962
		},
		{
			"buffer":0,
			"byteLength":6420,
			"byteOffset":138788,
			"target":34962
		},
		{
			"buffer":0,
			"byteLength":6420,
			"byteOffset":145208,
			"target":34962
		},
		{
			"buffer":0,
			"byteLength":6420,
			"byteOffset":151628,
			"target":34962
		},
		{
			"buffer":0,
			"byteLength":6420,
			"byteOffset":158048,
			"target":34962
		},
		{
			"buffer":0,
			"byteLength":6420,
			"byteOffset":164468,
			"target":34962
		},
		{
			"buffer":0,
			"byteLength":6420,
			"byteOffset":170888,
			"target":34962
		},
		{
			"buffer":0,
			"byteLength":47616,
			"byteOffset":177308,
			"target":34962
		},
		{
			"buffer":0,
			"byteLength":47616,
			"byteOffset":224924,
			"target":34962
		},
		{
			"buffer":0,
			"byteLength":31744,
			"byteOffset":272540,
			"target":34962
		},
		{
			"buffer":0,
			"byteLength":11520,
			"byteOffset":304284,
			"target":34963
		},
		{
			"buffer":0,
			"byteLength":6420,
			"byteOffset":315804,
			"target":34962
		},
		{
			"buffer":0,
			"byteLength":6420,
			"byteOffset":322224,
			"target":34962
		},
		{
			"buffer":0,
			"byteLength":4280,
			"byteOffset":328644,
			"target":34962
		},
		{
			"buffer":0,
			"byteLength":6420,
			"byteOffset":332924,
			"target":34962
		},
		{
			"buffer":0,
			"byteLength":6420,
			"byteOffset":339344,
			"target":34962
		},
		{
			"buffer":0,
			"byteLength":6420,
			"byteOffset":345764,
			"target":34962
		},
		{
			"buffer":0,
			"byteLength":6420,
			"byteOffset":352184,
			"target":34962
		},
		{
			"buffer":0,
			"byteLength":6420,
			"byteOffset":358604,
			"target":34962
		},
		{
			"buffer":0,
			"byteLength":6420,
			"byteOffset":365024,
			"target":34962
		},
		{
			"buffer":0,
			"byteLength":6420,
			"byteOffset":371444,
			"target":34962
		},
		{
			"buffer":0,
			"byteLength":6420,
			"byteOffset":377864,
			"target":34962
		},
		{
			"buffer":0,
			"byteLength":6420,
			"byteOffset":384284,
			"target":34962
		},
		{
			"buffer":0,
			"byteLength":6420,
			"byteOffset":390704,
			"target":34962
		},
		{
			"buffer":0,
			"byteLength":6420,
			"byteOffset":397124,
			"target":34962
		},
		{
			"buffer":0,
			"byteLength":6420,
			"byteOffset":403544,
			"target":34962
		},
		{
			"buffer":0,
			"byteLength":6420,
			"byteOffset":409964,
			"target":34962
		},
		{
			"buffer":0,
			"byteLength":6420,
			"byteOffset":416384,
			"target":34962
		},
		{
			"buffer":0,
			"byteLength":6420,
			"byteOffset":422804,
			"target":34962
		},
		{
			"buffer":0,
			"byteLength":6420,
			"byteOffset":429224,
			"target":34962
		},
		{
			"buffer":0,
			"byteLength":6420,
			"byteOffset":435644,
			"target":34962
		},
		{
			"buffer":0,
			"byteLength":6420,
			"byteOffset":442064,
			"target":34962
		},
		{
			"buffer":0,
			"byteLength":42240,
			"byteOffset":448484,
			"target":34962
		},
		{
			"buffer":0,
			"byteLength":42240,
			"byteOffset":490724,
			"target":34962
		},
		{
			"buffer":0,
			"byteLength":28160,
			"byteOffset":532964,
			"target":34962
		},
		{
			"buffer":0,
			"byteLength":10368,
			"byteOffset":561124,
			"target":34963
		},
		{
			"buffer":0,
			"byteLength":5376,
			"byteOffset":571492,
			"target":34962
		},
		{
			"buffer":0,
			"byteLength":5376,
			"byteOffset":576868,
			"target":34962
		},
		{
			"buffer":0,
			"byteLength":3584,
			"byteOffset":582244,
			"target":34962
		},
		{
			"buffer":0,
			"byteLength":1152,
			"byteOffset":585828,
			"target":34963
		},
		{
			"buffer":0,
			"byteLength":8,
			"byteOffset":586980
		},
		{
			"buffer":0,
			"byteLength":96,
			"byteOffset":586988
		},
		{
			"buffer":0,
			"byteLength":384,
			"byteOffset":587084
		},
		{
			"buffer":0,
			"byteLength":3456,
			"byteOffset":587468
		}
	],
	"buffers":[
		{
			"byteLength":590924,
			"uri":"data:application/octet-stream;base64,"
		}
	]
}
